<svg xmlns="http://www.w3.org/2000/svg" id="social" viewBox="0 0 300 300"><defs><style>.a,.d{fill:#aea5bb;}.a,.b,.c{fill-rule:evenodd;}.b,.c{fill:#fff;}.c{stroke:#aea5bb;stroke-linecap:round;stroke-linejoin:round;stroke-width:2.126px;}</style></defs><title>Social Media</title><path class="a" d="M66.257,50.15c-4.314,4.014-13.653,217.442.544,224.6,30.409,15.326,116.683-29.36,117.939-36.455,1.337-7.548,13.189-188.207.565-211.829-.493-.921-2.941-2.726-3.5-3.146C170.857,15.146,79.515,37.814,66.257,50.15Z"/><path class="a" d="M182.156,22.841c3.536,2.638,3.714,3.059,4.6,5.42,10.079,27.675,1.882,180.865-1.11,208.91a4.438,4.438,0,0,1-.427,1.968c-4.822,8.892-82.885,48.3-115.34,37.661a23.832,23.832,0,0,1-3.681-1.568C51.682,265.6,61.651,56.038,65.945,50.046l-.014-.005C78.305,37.977,170.656,14.256,182.156,22.841Zm-10.206-.684c-18.5.08-51.45,7.955-70.1,13.5-8.133,2.422-29.113,9-35.387,14.713l0,0a12.173,12.173,0,0,0-.9,3.824c-2.756,18.6-4.624,73.7-5.134,94.292-.261,10.863-2.957,119.923,6.615,125.576.259.155,1.33.637,1.961.884,21.523,8.588,65.764-9.068,86.609-19.14,5.855-2.812,23.881-11.956,27.958-16.926a1.508,1.508,0,0,0,.459-.96c1.518-10.783,12.442-180.679,1.514-209.411a12.913,12.913,0,0,0-.865-1.894,20.634,20.634,0,0,0-3.293-2.858C179.28,22.271,174.521,22.157,171.95,22.157ZM65.931,50.041l.014.005h0A.758.758,0,0,1,66,49.979Z"/><path class="b" d="M76.056,52.848c-4.054,4-11.338,214.187.512,223.836,12.167,9.906,109.635-29.26,110.815-36.331,1.306-7.816,11.327-203.085-2.761-214.245C174.339,17.963,88.513,40.554,76.056,52.848Z"/><path class="a" d="M184.375,25.24a5.137,5.137,0,0,1,2.013,2.151c11.751,20.8,3.936,181.712,2.352,205.705-.521,7.877-.536,7.7-1.223,8.572-5.147,6.254-47.051,23.827-76.489,32.174-7.638,2.146-25.465,6.963-33,4.43a5.106,5.106,0,0,1-3.491-3.488c-7.758-19.174-4.447-131.115-3.714-151.915,2.646-73.333,5.207-70.039,4.9-70.119C87.311,40.712,171.719,17.989,184.375,25.24Zm-9.008-.295c-17.534.08-48.778,8.054-66.383,13.621-7.545,2.4-27.008,8.913-32.712,14.492l0,0c-3.893,4.175-10.408,208,.395,222.681,2.511,3.268,14.284,1.245,18.33.483,19.857-3.842,47.752-14.11,66.237-22.1,5.437-2.362,20.128-8.891,24.544-12.832.931-.865.859-.988.937-1.688,1.671-15.9,10.629-197.947-2.053-212.637C182.949,25.052,178.005,24.945,175.367,24.945ZM75.726,52.75l.014,0,0,0c.021-.029.032-.043.049-.065Z"/><path class="b" d="M146.992,45.911c12.215-2.53,22.268-3.362,25.046-.953,10.673,9.255,3.08,171.213,2.092,177.7-.894,5.865-74.74,38.349-83.958,30.133-8.978-8-3.459-182.333-.388-185.651,3.59-3.878,16.777-10.645,28.684-13.467,2-.475.852,4.953,2.51,5.633,5.207,2.133,25.274-6.1,26.1-7.565C147.453,51.069,147.3,48.639,146.992,45.911Z"/><path class="a" d="M118.774,53.208c2.139.157,1.035,5.183,2.413,5.734,4.518,1.71,19.82-4.09,24.34-6.52,1.487-.806,1.172-.845,1.272-.845.388-.774.05-4.049-.028-4.877-.071-.709-.186-.978.16-1.084.07.333.029.138,0,0,5.69-1.193,18.127-3.584,23.693-1.827A3.974,3.974,0,0,1,173,45.505c9.741,15.212,2.91,174.007,1.8,177.517-1.27,3.908-21.984,13.286-25.741,14.975-10.944,4.883-45.791,19.4-57.1,16.491-2.349-.64-3.024-1.684-3.719-3.791-7.029-21.536-2.413-168.09.674-182.611.244-1.155.321-1.257,1.542-2.308,5.337-4.482,15.96-8.991,22.809-11.134A49.271,49.271,0,0,1,118.774,53.208Zm35.4-8.291c-3.023.475-6.588,1.178-6.854,1.238a34,34,0,0,1,.279,4.5c-.061,1.252-.248,1.43-1.167,2C142.063,55.3,126.9,61.021,121.57,59.9a1.823,1.823,0,0,1-1.5-.943c-.708-1.337-.546-4.262-1.172-4.819-.155-.135-.145-.108-1.577.26a89.321,89.321,0,0,0-15.109,5.574c-3.444,1.632-9.411,4.742-12.023,7.5-2.733,5.467-8.036,174.391.38,184.627.891,1.008,3.141,1.2,4.413,1.241,15.1.287,51.847-15.332,66.945-23.189,1.887-.989,10.693-5.637,11.478-7.6.765-3.8,9.091-170.741-2-177.586C167.992,42.911,158.085,44.311,154.177,44.917Z"/><path class="b" d="M212.649,76.368c-.3-.361-.4-1.436-.609-1.849-.621-1.212-1.183-2.418-1.688-3.684-.419-1.055-1.691-3.193-.872-4.595a1.837,1.837,0,0,1,2.208-.517,4.081,4.081,0,0,1,1.456,1.289c.07.092.181.534.244.575.12.078-.091-.339.04-2.277.114-1.711-.052-3.738.467-5.388.127-.406.646-1.3,1.233-1.224.521.067.984.729,1.2,1.161a13.367,13.367,0,0,1,.829,5.834c0,.071.037.327-.01.388a12.865,12.865,0,0,1,.967-5.221c.288-.762.434-1.3,1.267-1.486,1.84-.4,1.963,2.281,1.727,3.458-.355,1.759-.513,3.433-.492,3.251a5.118,5.118,0,0,1,2.3-3.393c.5-.285,1.478-.583,1.82.089.623,1.227-.044,3.158-.49,4.31a17.665,17.665,0,0,1-4.305,7.26,7.468,7.468,0,0,1-2.2,2.06C217.358,76.575,212.649,76.368,212.649,76.368Z"/><path class="a" d="M219.862,58.58c1.768.14,2.234,2.186,2.053,3.927,1.775-1.464,3.819-1.151,3.77,1.517a10.835,10.835,0,0,1-.949,3.611,14.184,14.184,0,0,1-2.457,4.674,41.58,41.58,0,0,1-3.119,3.612,3.871,3.871,0,0,1-1.348.907,50.338,50.338,0,0,1-5.226-.165.307.307,0,0,1-.173-.107c.278-.221.353-.28,0,0a6.67,6.67,0,0,1-.623-1.745c-.062-.172-.954-1.716-1.847-3.813-.375-.867-.609-1.2-.933-2.07-.478-1.351-.529-3,.746-3.671a2.726,2.726,0,0,1,2.534.1c.521.323.45.408.457.223.106-2.528-.108-5.249.866-6.676,1.02-1.531,2.777-1.244,3.7,1.42.155.458,0,.369.4-.5A2.16,2.16,0,0,1,219.862,58.58ZM214.2,62.7c-.2,4.8-.163,3.493-.166,3.863,0,1.03.1,1.094-.108,1.408a.647.647,0,0,1-.692.236.781.781,0,0,1-.53-.58c-.088-.266-.095-.282-.1-.285-.594-.769-1.166-1.355-2.111-1.166a.844.844,0,0,0-.712.761c-.245,1.108.489,2.509.9,3.535,1.116,2.915,1.6,3.678,1.732,4.056.155.466.208,1.014.376,1.473,0,.009.023.058.028.066.787.015,3.938.06,4.721-.047a2.921,2.921,0,0,0,.9-.676c.357-.366,1.739-2.073,1.919-2.3a18.247,18.247,0,0,0,2.819-4.817c.452-1.392,1.53-3.945.912-5.125l-.01,0c-.962-.16-2.551,1.657-2.727,2.98a.872.872,0,0,1-.156.461.742.742,0,0,1-.924.223.758.758,0,0,1-.352-.363c-.109-.318-.086-.511.227-2.641a7.82,7.82,0,0,0,.267-2.313,1.97,1.97,0,0,0-.475-1.3.562.562,0,0,0-.41-.03.543.543,0,0,0-.449.337,13.928,13.928,0,0,0-.585,1.6,9.521,9.521,0,0,0-.592,3.411c-.014.547.074.986-.393,1.267a.76.76,0,0,1-1.135-.512c-.1-.6.316-3.272-.53-5.6-.313-.809-.639-1.129-.794-1.192C214.352,59.905,214.243,61.825,214.2,62.7Zm3.384,13.314Zm0,0h0l.012,0Zm0,0,.018,0-.015,0,.013,0Zm-3.547-8.723v0Zm-.122-.04,0-.008.008.019-.008-.017ZM224.1,63.1h0l-.007,0Zm0,0h0l-.009,0Zm0,0h0l-.007,0Zm0,0h0l-.007,0Zm0,0h0l-.008,0Zm0,0h0l-.008-.006Zm0,0h0l-.009-.007Zm0,0h0l-.01-.008Zm0,0h0Zm0,0h0l0,0h0l0,0,0-.008Zm0,0h0l-.009-.008Zm0,0h0l-.01-.011Zm0,0-.009-.009Zm0,0-.009-.011Zm0,0-.009-.011Zm-9-3.686h0Z"/><path class="b" d="M170.182,126.473c2.3-.343,4.405-2.188,6.561-3a46.284,46.284,0,0,0,22.63-18.051c3.586-5.552,5.949-11.768,8.5-17.814a51,51,0,0,0,2.989-8.437c.233-1.023.4-3.57,1.123-4.326.59-.615,2.629-.15,3.411-.144.738.006,2.748-.354,3.306.15.942.85.487,3.006.471,4.075-.059,4.149-.378,8.322-.672,12.459-.576,8.087-1.034,16.929-3.489,24.7-2.918,9.238-9.85,17.61-17.154,23.6-3.88,3.183-8.144,5.441-12.421,8.033-.616.373-3.739,2.6-4.4,2.333-1.312-.529-2.344-5.093-2.862-6.319C175.737,137.967,170.182,126.473,170.182,126.473Z"/><path class="a" d="M170.136,126.171c2.161-.35,4.061-2.036,6.371-3.007,11.794-4.617,19.963-12.492,25.4-23.549,2.058-4.185,6.608-15.231,7.432-17.717h0c1.264-3.861.917-4.68,1.5-6.436.691-2.071,2.029-1.724,4.361-1.511.671.05,1.732-.187,2.818-.087a1.878,1.878,0,0,1,1.783,1.359,8.817,8.817,0,0,1,.125,3.475c-.037.628.009,1.314-.148,4.547-.128,2.636-.914,14.481-1.372,18.914-.609,5.857-1.589,11.876-3.849,17.315a53.035,53.035,0,0,1-12.336,17.263c-6.106,5.8-9.721,7.457-16.489,11.471-1.162.73-3.357,2.27-4.448,2.4-1.757.132-2.785-4.4-3.408-6.288-.862-2.561-7.975-17.708-7.995-17.809a.29.29,0,0,1,.114-.271h0l.043-.028a.327.327,0,0,1,.1-.033C170.174,126.415,170.206,126.62,170.136,126.171Zm42.369-50.815c-.563.675-.592,2.725-1.178,4.946-1.239,4.511-6.793,17.207-8.975,21.278A48.779,48.779,0,0,1,197.7,108.8c-9.115,11.61-20.383,14.7-22.3,15.691a19.53,19.53,0,0,1-4.768,2.21c9.66,19.64,7.883,16.983,9.294,20.648a5.874,5.874,0,0,0,1.232,2.16c.235.166,2.273-1.156,2.486-1.294,7.061-4.641,14.479-7.629,23.148-18.638,9.855-12.646,9.883-22.977,11.23-42.135.173-2.536.311-4.9.379-7.373a36.158,36.158,0,0,0,.113-3.88,1.477,1.477,0,0,0-.276-.757c-.253-.276-2.44.05-3.153-.013A8.165,8.165,0,0,0,212.505,75.356Z"/><path class="b" d="M117.906,154.472c.03-7.355,18.4-26.769,42.311-29.782,8.189-1.032,29.171-1.61,37.538,15.409,1.519,3.089,3.146,6.535,2.974,10.082-.214,4.379-2.529,7.836-4.641,11.5-5.674,9.837-11.994,17.238-20.4,25.173-6.859,6.477-18.026,9.9-27.293,7.795a75.209,75.209,0,0,1-20.083-8.242C122.2,182.73,113.6,174.193,112.139,166.7,110.936,160.533,117.893,157.73,117.906,154.472Z"/><path class="a" d="M187.592,128.284a26.659,26.659,0,0,1,11.261,12.37,30.058,30.058,0,0,1,2.178,5.569c1.53,6.067-1.083,10.447-4.305,15.864a98.161,98.161,0,0,1-9.071,13.179c-3.12,3.813-10.159,11.447-14.1,14.333-6.667,4.932-16.358,7.6-24.86,5.822a67.974,67.974,0,0,1-12.7-4.36c-7.419-3.328-13.3-7.019-18.818-13.856a28.019,28.019,0,0,1-4.967-8.6c-.882-2.737-.919-5.025.786-7.621,1.695-2.64,4.564-4.554,4.608-6.512h0c0-3.038,2.767-7.012,4.668-9.375a60.451,60.451,0,0,1,16.391-13.6C157.134,120.933,176.589,122.025,187.592,128.284Zm-28.4-2.8c-12.618,1.813-24.754,8.44-33.182,16.695-2.792,2.747-7.73,8.39-7.8,12.3h0c0,3.565-7.067,6.095-5.576,12.572,1.627,6.508,8.211,13.425,13.623,17.309,5.747,4.138,17.767,9.157,24.656,10.018a31.157,31.157,0,0,0,16.545-2.888c5.577-2.646,8.287-5.54,12.748-10.135,7.79-8.092,11.619-13.825,16.622-22.435,2.95-5.158,4.194-8.732,2.154-14.243a42,42,0,0,0-3.44-6.986C188.042,126.185,172.612,123.556,159.194,125.483Z"/><path class="b" d="M189.3,77.362S178.761,82.2,175.251,92.9c-1.31,3.994-5.6,7.967-9.748,7.02-2.076-.474-2.847-1.537-5.512-1.418-3.809.173-7.235,9.792-.566,10.559a14.347,14.347,0,0,0,3.019-.272,11.182,11.182,0,0,0,2.914,8.663c.64.664,5.727,3.006,6.157,3.786.754,1.368-2.3,3.322-2.651,4.408-.622,1.907,1.958,5.335,3.131,6.455,1.985,1.894,4.778,2.4,6.74.039a5.455,5.455,0,0,0,1.136-5.024c-.358-.974-2.144-3.195-.756-4.293.544-.431,1.9.054,2.523.013a19.831,19.831,0,0,0,4.81-1.146c6.276-2.094,11.243-8.385,13.288-14.468,1.586-4.721,2.882-10.794,2.6-15.748-.069-1.2.328-3.73-.407-4.715-.861-1.155-3.108-1.372-4.306-2.117A30.078,30.078,0,0,1,189.3,77.362Z"/><path class="a" d="M189.172,77.088c.315-.114.317.06.911.8a32.071,32.071,0,0,0,7.808,6.423c1.026.579,2.857.831,3.944,1.69,1.28,1.012,1.036,2.813,1,4.832a35.979,35.979,0,0,1-.323,7.405,53.749,53.749,0,0,1-2.417,9.923,26.564,26.564,0,0,1-5.331,8.753,20.3,20.3,0,0,1-11.705,6.484,5.342,5.342,0,0,1-2.2.113c-.984-.152-1.145-.137-1.288-.1-.287.229-.249.593-.158.947.445,1.6,1.475,2.081,1.44,4.271a6.312,6.312,0,0,1-3.667,5.558c-3.578,1.305-6.789-1.969-8.483-5.4a4.491,4.491,0,0,1-.464-3.61c.555-1.082,2.595-2.64,2.645-3.46.019-.282-1.744-1.228-2.078-1.413-3.8-2.106-3.633-1.905-4.511-2.937a11.42,11.42,0,0,1-2.605-7.763,9.265,9.265,0,0,1-1.741.2c-3.636-.058-5.718-2.772-4.784-6.712.535-2.154,2.029-4.59,4.119-5.162a5.78,5.78,0,0,1,1.839-.078c1.973.2,2.777,1,4.39,1.411,3.77.9,7.482-2.374,9.009-5.919a32.3,32.3,0,0,1,1.442-3.526,29.492,29.492,0,0,1,12.266-12.265c.221-.12.714-.374.942-.474C189.227,77.205,189.283,77.323,189.172,77.088Zm-26.4,31.05h0c.558.341.373.661.365,1.761a9.945,9.945,0,0,0,2.4,6.649c.486.554.432.53,3.068,1.949a24.42,24.42,0,0,1,3.158,1.908,1.6,1.6,0,0,1,.619,1.266c.038,1.634-2.231,3.173-2.767,4.124-.34.625.258,1.977.582,2.608,3.134,5.793,7.126,5.617,8.728,1.973,1.359-3.248-.889-3.8-1.08-6.3a2.106,2.106,0,0,1,.831-1.867,1.924,1.924,0,0,1,1.245-.316c1.414.068,1.515.695,6.361-.931,6.215-2.128,10.944-8.232,13.055-14.614a43.7,43.7,0,0,0,2.473-14.977c-.027-1.156.3-3.543-.265-4.335-.642-.9-2.53-1.212-3.817-1.854A31.325,31.325,0,0,1,189.2,77.75a28.112,28.112,0,0,0-13.078,14.224,14.543,14.543,0,0,1-1.854,4.065c-1.654,2.371-4.114,4.344-6.968,4.615-2.109.17-3.293-.612-4.783-1.144a5.216,5.216,0,0,0-3.153-.186c-2.709,1.171-4.849,7.681-.685,8.86C160.644,108.731,161.98,107.8,162.775,108.138Z"/><path class="a" d="M165.626,117.6a13.591,13.591,0,0,1-3.73.885,6.568,6.568,0,0,1-1.62.2c-1.633-.093-3.045-.875-4.6-1.261-6.715-1.668-13.81-4.45-17.276-11.04a27.4,27.4,0,0,1-1.97-5.936,16.489,16.489,0,0,1-.68-6.568c.832-5.2,5.557-9.468,6.159-14.563,2.506-21.214,24.8-24.718,41.034-21.394,6.905,1.414,23.494,12.963,20.206,24.509-.156.545-.367,4.4-1.1,4.347-1.914-.135-11.423-5.841-12.626-9.394,0,0-10.539,4.836-14.049,15.535-1.31,3.994-5.6,7.967-9.748,7.02-2.076-.474-2.847-1.538-5.512-1.418-3.809.173-7.236,9.792-.566,10.559a14.271,14.271,0,0,0,3.018-.272,11.18,11.18,0,0,0,2.915,8.663A1.138,1.138,0,0,0,165.626,117.6Z"/><path class="a" d="M162.955,111.189a10.452,10.452,0,0,0,.888,3.342,9.526,9.526,0,0,0,2.035,2.906.3.3,0,0,1-.113.433l-.018-.034.02.038a9.8,9.8,0,0,1-3.068.821c-1.738.263-2.224.675-4.726-.133-.9-.293-1.157-.41-1.969-.651-.768-.217-1.959-.434-4.563-1.265-7.338-2.422-12.726-6.133-14.9-13.58-.834-2.891-1.792-6.157-1.423-9.113.766-5.521,5.483-9.476,6.14-14.963,2.019-15.965,15.23-22.972,31.258-22.9,3.767.028,9.789.536,13.282,1.953a34.206,34.206,0,0,1,6.333,3.488c7.111,4.95,13.969,12.725,11.73,21.124-.2.946-.282,3.476-.972,4.427-.411.524-.853.5-1.455.338-3.023-.872-10.6-5.78-12.36-9.051a29.642,29.642,0,0,0-10.743,9.8c-2.317,3.673-2.072,5.1-3.587,7.471a11.354,11.354,0,0,1-5.417,4.559c-4.009,1.4-5.615-.941-8.384-1.158a2.818,2.818,0,0,0-2.288.607c-2.864,2.316-4.1,8.809,1.324,9.072,1.183.02,2.383-.4,2.754-.241C163.211,108.947,162.74,108.934,162.955,111.189Zm-2.147-52.16c-10.114,2.81-16.61,9.329-18.123,19.653a15.285,15.285,0,0,1-2.187,6.433c-1.524,2.751-3.431,5.524-4.043,8.354a14.2,14.2,0,0,0,.432,6.451c.774,3.131,1.232,5.266,2.917,7.793,4.892,7.137,13.531,8.393,17.843,9.964a6.411,6.411,0,0,0,3.785.56,22.048,22.048,0,0,0,3.657-.728c-.046-.047-.271-.3-.462-.527a11.13,11.13,0,0,1-2.444-7.749,7.5,7.5,0,0,1-3.468.118c-5.541-1.371-3.425-9.241.175-11.013a5.288,5.288,0,0,1,3.061-.2c1.868.385,3.057,1.435,4.982,1.4,3.466-.06,6.73-3.434,7.845-6.807,2.184-6.861,7.917-12.664,13.854-15.744.486-.253,1-.57,1.419.063a5.159,5.159,0,0,0,1,1.628,32.415,32.415,0,0,0,10.646,7.273c.126.039.1.043.122-.014.322-.993.472-3.078.6-3.645a10.6,10.6,0,0,0,.4-2.513c.173-4.756-2.906-9.3-6.27-12.644-4.525-4.526-10.279-7.655-13.529-8.413A48.71,48.71,0,0,0,160.808,59.029Z"/><path class="b" d="M192.132,142.942a35.432,35.432,0,0,1,4.641-3.175c.587-.344,1.565-.548,1.953-1.156a8.1,8.1,0,0,0,.679-2.423c.64-2.767,1.018-5.706,4.137-6.677,3.2-1,6.893-1.5,10.072-.171,1.774.738,3.232,3.57,1.592,5.17.713-.184,1.205.909,1.539,1.425a2.92,2.92,0,0,1-.728,3.949c1.894,1.059,1.3,4.8-.451,5.906a11.212,11.212,0,0,1-6.02,1.182,13.784,13.784,0,0,0-2.5-.25c-.6.1-1.106.832-1.566,1.178-1.161.872-4.535,3.325-4.866,3.395C200.149,151.392,192.132,142.942,192.132,142.942Z"/><path class="a" d="M209.481,127.82c1.807.019,4.343.415,5.661,1.663a4.566,4.566,0,0,1,1.492,3.807c-.23,1.414-.529.354.213,1.385a9.747,9.747,0,0,1,.875,1.526,3.747,3.747,0,0,1-.525,3.609c-.054.067-.056.035.012.119a4.447,4.447,0,0,1,.557,3.748,4.375,4.375,0,0,1-3.072,3.357,13.77,13.77,0,0,1-5.642.608,5.728,5.728,0,0,0-2.016-.195,9.558,9.558,0,0,0-1.042.9c-.342.277-4.053,2.9-4.983,3.391a.755.755,0,0,1-.97-.116c-1.438-1.116-6.809-7.017-8.034-8.368-.128-.127-.193-.2-.169-.377h0a.3.3,0,0,1,.1-.166l0,0a32.338,32.338,0,0,1,3.421-2.553,13.641,13.641,0,0,1,2.481-1.392,1.394,1.394,0,0,0,.733-1.07,32.435,32.435,0,0,1,1.472-5.9c1.177-2.416,2.85-2.9,5.431-3.511A18.086,18.086,0,0,1,209.481,127.82Zm-8.693,22.952-.014-.007.016.01-.013-.009.015.008-.012-.006ZM207.5,146a19.248,19.248,0,0,0,3.416.25,8.938,8.938,0,0,0,4.387-1.186,3.628,3.628,0,0,0,.79-4.094c-.342-.513-.536-.32-.778-.8a.756.756,0,0,1,.276-.906,2.143,2.143,0,0,0,.718-2.519,6.023,6.023,0,0,0-.965-1.493.925.925,0,0,1-.218.011.752.752,0,0,1-.67-.689c0-.723.62-.627.709-1.637a3.149,3.149,0,0,0-.927-2.258c-.974-1-3.073-1.351-4.47-1.407a17.5,17.5,0,0,0-5.135.637c-1.734.458-2.847.876-3.725,2.954-.679,1.607-1.173,4.675-1.5,5.492a2.145,2.145,0,0,1-1.2,1.269,16.465,16.465,0,0,0-3.9,2.141c-.552.365-1.118.757-1.713,1.214,1.347,1.347,6.475,6.458,7.97,7.638.063.049.039.049.107,0,1.167-.773,4.182-3.072,4.422-3.263C205.757,146.826,206.106,145.976,207.5,146Z"/><path class="b" d="M110.479,156.028c-9.426,2.365-6.04,17.123-2.55,22.845"/><path class="a" d="M110.776,155.953l-.221.371a7.053,7.053,0,0,0-4.189,3.467,11.557,11.557,0,0,0-1.22,4.716,33.272,33.272,0,0,0,2.451,12.934c.664,1.6.646,1.039.49,1.692-.462-.115-.392-.069-.461-.169-5.093-7.23-6.595-21.476,2.778-23.232Z"/><path class="b" d="M112.389,185.554a24.183,24.183,0,0,0,13.181,12.5"/><path class="a" d="M112.667,185.428a31.957,31.957,0,0,0,13.009,12.339l.181.389-.392.176a19.258,19.258,0,0,1-10.437-7.148,18.027,18.027,0,0,1-2.918-5.5l.153-.4Z"/><path class="b" d="M139.474,202.493c7.7,4.041,21.478,3.89,28.019-2.695"/><path class="a" d="M167.705,200.011c-6.243,7.176-20.359,7.587-28.372,2.752l-.129-.411.412-.13c7.472,3.282,19.519,3.1,26.4-1.646,1.635-1.142.918-.99,1.687-.994Z"/><path class="b" d="M189.082,78.033a12.575,12.575,0,0,1-4.695,11.1"/><path class="a" d="M189.386,78.009a10.485,10.485,0,0,1-1.159,7.754,9.035,9.035,0,0,1-3.655,3.606l-.426-.051c.078-.593-.057-.255.587-1.014a16.858,16.858,0,0,0,3.359-6.325,22.332,22.332,0,0,0,.685-3.922l.281-.328Z"/><path class="b" d="M190.622,80.3c-.005-.3,1.265,1.67,1.561,2.183a7.4,7.4,0,0,1,.554,6.107"/><path class="a" d="M190.471,80.536l.013.011-.011-.014.014.011-.006-.006.012.008-.006-.005.015.01,0,0,.019.011,0,0,.026.011,0,0,.034.011h-.005l.028,0-.275-.285v-.019a.273.273,0,0,1,.009-.072c0-.007.016-.049.018-.055.095-.172.284-.313.642-.032a7.283,7.283,0,0,1,2.878,5.343,5.544,5.544,0,0,1-.763,3.092c-.093.17,0,.1-.462.326-.313-.653-.126-.09-.126-1.291a9.152,9.152,0,0,0-.035-1.023,8.717,8.717,0,0,0-1.169-4.23c-.166-.321-.693-1.549-.828-1.774l.007.007Zm.456-.234-.286.276h.019a.278.278,0,0,0,.2-.1l.039-.054,0,0,.022-.05,0,0,.012-.041h0v0l0-.032V80.3Z"/><path class="c" d="M181.825,96.993c0,1.092-.045,1.095-.053,2.166"/><path class="c" d="M197.546,96.338c.015.723.011.823-.016,1.672"/><path class="b" d="M189.647,95.27c.48,2.265,1.233,4.293,1.933,7.146a9.811,9.811,0,0,1-2.558,1.219"/><path class="a" d="M191.9,103.05a7.484,7.484,0,0,1-2.808.878l-.367-.221.225-.365a10.58,10.58,0,0,0,1.809-1.191,24.585,24.585,0,0,1-1.41-6.817l.235-.362.363.234a34.379,34.379,0,0,1,2.212,6.484C192.281,102.279,192.45,102.744,191.9,103.05Z"/><path class="b" d="M194.943,106.99s-9.012,1.7-13.4.912c-.287,2.152-.661,4.537.644,6.471,1.43,2.118,5.137,2.51,7.258,1.451C192.765,114.166,195.266,111,194.943,106.99Z"/><path class="a" d="M195.179,107.068a8.732,8.732,0,0,1-2.595,7.116,9.686,9.686,0,0,1-4.17,2.576,7.521,7.521,0,0,1-4.747-.464c-2.9-1.4-3.215-4.249-2.8-7.438.151-1.155.129-1.146.293-1.339a.574.574,0,0,1,.583-.136c3.3.559,9.933-.138,13.16-.618v0l.038,0C195.067,106.774,195.155,106.812,195.179,107.068Zm-13.162,1.454c-.234,1.924-.447,3.914.643,5.533,1.051,1.522,3.4,1.99,5.236,1.691a6.475,6.475,0,0,0,2.747-1.224,8.707,8.707,0,0,0,4.037-6.268,8.273,8.273,0,0,0,.045-.982C191.122,108.041,185.662,108.944,182.017,108.522Z"/><path class="a" d="M211.466,111.521a11.82,11.82,0,0,0-4.981-.314c-3.842.853-7,5.563-5.246,9.361.973,2.108,4.558,4.346,8.009,4.169.429-.023,1.315.036,1.575-.36,1.072-1.625.234-4.987.33-6.851C211.255,115.538,211.466,111.521,211.466,111.521Z"/><path class="a" d="M207.752,110.58a17.067,17.067,0,0,1,3.769.641v0c.355.091.25.13.211,4.549,0,.235-.031,1.65-.025,1.985.072,2.016.934,5.269-.307,7.068-.508.674-1.453.636-2.353.661a10.175,10.175,0,0,1-6.37-2.159,6.119,6.119,0,0,1-2.421-3.272C199.007,115.818,202.721,110.58,207.752,110.58Zm-1.8,1.343c-2.806,1.135-5.027,4.454-4.35,7.436a4.308,4.308,0,0,0,1.61,2.467,9.01,9.01,0,0,0,4.292,2.041,8.688,8.688,0,0,0,2.742.052l0,0c.826-1.36.2-4.554.349-6.419.552-6.2.6-5.7.482-5.722C209.223,111.506,207.746,111.234,205.954,111.923Zm4.265,12.044,0,0h0Z"/><path class="a" d="M205.67,123.823a13.861,13.861,0,0,0-.787,4.24,16.007,16.007,0,0,0-.129,3.758c.585,3.046,6,3.02,7.73,1.12.857-.941.411-4,.367-5.221-.022-.6.238-2.9-.233-3.256-.544-.412-1.535-.183-2.152-.164C209.3,124.334,205.67,123.823,205.67,123.823Z"/><path class="a" d="M205.711,123.525a40.847,40.847,0,0,0,4.956.2,4.76,4.76,0,0,1,1.736-.048,1.315,1.315,0,0,1,1.085,1.138,8.137,8.137,0,0,1,.114,1.733,11.923,11.923,0,0,0,.07,2.321c.148,1.88.288,3.815-.909,4.858-2.066,1.8-6.793,1.816-8.286-.707h0a5.4,5.4,0,0,1-.332-3.49,20.627,20.627,0,0,1,1.242-5.818C205.42,123.716,205.428,123.507,205.711,123.525Zm-.282,3.922c-.025.1-.123,3.074-.121,3.175a2.466,2.466,0,0,0,.765,2.127,5.254,5.254,0,0,0,5.658-.133c.933-.777.311-3.356.437-5.922a8.131,8.131,0,0,0-.017-1.765h0a7.311,7.311,0,0,0-1.942-.088c-1.111-.068-3.117-.44-4.331-.671A12.756,12.756,0,0,0,205.429,127.447Zm6.78-2.478-.011-.01.025.021-.01-.01.022.018-.04-.033h0Zm-.013-.011,0,0h0Z"/><path class="a" d="M254.856,133.506c-4.36-.6-17.314-3.358-23.3-4.523-5.313-1.034-19.625-4.415-20-4.991-.615-.936-.27-5.985-.143-11.815,2.858-1.452,40.73-22.486,40.955-22.436C265.431,92.643,263.241,131.666,254.856,133.506Z"/><path class="a" d="M252.456,89.01c4.66,1.065,7.124,5.954,8.342,10.56,2.564,9.446,1.685,27.726-3.911,33.137a3.645,3.645,0,0,1-2.073,1.1l0-.009c-.033.186-24.534-4.224-36.854-7.213-6.663-1.63-6.843-1.841-7.1-2.389-.607-1.351-.34-6.246-.252-8.656.075-3.711.038-3.439.151-3.7.19-.3.164-.222,1.576-.987C223.462,104.8,251.666,88.985,252.456,89.01Zm-40.323,23.618-.064,2.954h-.008c-.066,1.578-.331,6.526.045,7.924,4.606,1.928,38.238,9.021,42.745,9.691a4.865,4.865,0,0,0,2.591-2.231c3.414-5.3,4.021-16.41,3.427-23.244-.569-6.107-2.538-15.639-8.429-17.208C250.8,91.332,217.443,109.818,212.133,112.628Z"/><path class="a" d="M269.887,85.246a36.019,36.019,0,0,1,4.174,2c.606-.846,2.164-3.518,2.821-4.158a.977.977,0,0,1,.773-.3,13.651,13.651,0,0,1,4.421,1.418c.545-.768,1.1-1.668,1.775-2.6,1.7-2.342,2.054-2.247,3.044-1.764a20.28,20.28,0,0,1,3.679,2.4c.1.1.062.016.08.492-.791.026.093.146-2.027-.932a23.023,23.023,0,0,0-2.48-1.1,3.708,3.708,0,0,0-.377.439c-1.842,2.491-2.549,4.932-3.706,4.655a26.584,26.584,0,0,0-4.164-1.481c-.108-.011-.068-.034-.182.113-1,1.327-2.4,3.835-3.03,4.268-.757.44-1.424-.355-4.779-2.168-.521.7-2.341,3.6-2.792,4.41l-.408.141c-.159-.456-.159-.366-.118-.466.271-.629.955-2.037,1.309-2.752C269.1,85.461,269.322,85.178,269.887,85.246Zm4.512,2.148.013,0-.016,0Zm0,0h0Zm-4.319-1.074h0l.006,0Zm0,0,.019-.017-.01.008.019-.017-.008.006.011-.012A.3.3,0,0,0,270.078,86.317Zm11.777-1.834,0,0Zm0-.006h0Zm4.162-3.806h0Zm-.029-.005h-.012l.021,0h-.013l.025,0h.008c-.024,0-.013,0-.044-.006Z"/><path class="a" d="M291.139,107.067c.812.256,3.531,3.461,3.877,4.315l-.142.4c-.751-.27.035.127-1.448-1.361a27.643,27.643,0,0,0-2.345-2.063c-.2-.148-.156-.131-.259-.087a8.068,8.068,0,0,0-1.056.634c-5.027,3.476-3.412,3.485-6.54.634a7.882,7.882,0,0,0-1.414-1.067c-.708.39-2.234,1.533-3.593,2.43-1.272.81-1.4.657-2.464-.649-.844-1.048-1.538-2-2.106-2.664-.774.478-3.381,2.379-4.172,3.008-.1.077,0,.052-.493.028.023-.49-.016-.392.081-.492a46.357,46.357,0,0,1,4.28-3.717.7.7,0,0,1,.721-.042c.7.383,2.639,2.9,3.17,3.429a42.1,42.1,0,0,1,4.245-2.84.992.992,0,0,1,.794.058,13.919,13.919,0,0,1,3.53,2.94C287.077,109.161,290.065,106.817,291.139,107.067Zm-5.642,3.071h0Zm.007,0,0,0h0Zm-8-.059-.013-.011Zm-.014-.012,0,0,0,0Zm13.3-1.9-.011,0,.02.009-.012,0,.025.01-.01,0,.015.005-.042-.02Zm-16.9-.708h0l.006,0Zm0,0,.024-.008-.012,0,.023-.009,0,0h0l.015-.007A.356.356,0,0,0,273.884,107.456Z"/><path class="a" d="M271.774,127.561a.805.805,0,0,1,.6.376c.557.721,1.924,3.5,2.137,3.837,1.2-.455,3.464-1.5,4.458-1.769.559-.144.81-.075,1.373.412a16.782,16.782,0,0,1,2.49,3.41c1.144-.4,4.185-1.809,5.485-1.729a.776.776,0,0,1,.623.309,18.158,18.158,0,0,1,2.542,4.749c.026.121.052.042-.21.456-.62-.4-.105-.029-1-1.469a25.215,25.215,0,0,0-2.083-2.868,12.808,12.808,0,0,0-2.274.828c-2.875,1.236-3.51,1.748-4.131.855a21.927,21.927,0,0,0-2.38-3.346c-.158-.145-.119-.129-.219-.1-1.089.345-3.762,1.552-4.612,1.761a.882.882,0,0,1-.874-.156c-.522-.514-1.508-2.988-2.2-4.3-.911.312-4.05,1.671-4.806,2.043l-.415-.116.115-.416C266.972,129.965,271.056,127.554,271.774,127.561Zm10.716,6.368h0Zm.008,0h0Zm5.586-.752-.01,0,.018.013-.011-.008.022.016-.009-.006.013.008-.036-.028ZM274.71,132.1l-.011-.014Zm-.011-.015,0,0,0,0Zm-2.941-3.343s0,0,.007,0Zm0,0,.026,0-.013,0,.025,0h-.01l.016,0A.236.236,0,0,0,271.76,128.74Z"/><path class="b" d="M126.273,158.1c1.244,8.092-.044,21.066,25.752,30.177,29.823,10.532,52.656-34.472,52.17-36.078-.51-1.682-2.325-3.11-3.318-4.5a62.316,62.316,0,0,0-4.8-5.737c-.49-.538-1.326-1.763-1.981-2.023-.574-.227-1.44.412-1.929.6-1.774.693-3.589,1.2-5.357,1.917-3.44,1.4-7,2.287-10.51,3.454-2.669.887-6.015,2.054-8.9,1.341-.6-.148-3.9-8.593-5.708-10.849"/><path class="a" d="M196.508,141.4c.6.682,2.24,2.37,4.03,4.64.891,1.151.991,1.361,1.464,1.906.759.886,3.1,3.175,2.922,4.523a20.5,20.5,0,0,1-1.638,3.925,88.557,88.557,0,0,1-8.349,13.076c-10.232,13.259-24.6,24.511-40.83,20.172a62.6,62.6,0,0,1-10.363-4.15c-4.881-2.472-9.526-5.723-12.716-10.112-3.946-5.517-4.246-10.3-4.931-16.27-.142-1.185-.2-.855.131-1.312.408.3.336.171.4.566.733,4.536.709,10.47,5.2,16.429,4.75,6.295,13.393,10.541,20.858,12.986a26.29,26.29,0,0,0,14.79.588c13.647-3.463,25.317-16.875,32.445-28.953a49.235,49.235,0,0,0,3.431-6.747,2.26,2.26,0,0,0,.108-.362c-.5-1.436-1.969-2.529-3.365-4.465-1.069-1.466-2.092-2.673-3.279-4.025-2.762-3.115-2.352-2.843-2.963-3.247h0a3.332,3.332,0,0,0-1.059.419c-1.032.516-3.729,1.249-5.737,2.048-3.08,1.218-5.787,1.906-9.267,2.963-2.624.8-5.124,1.779-7.833,1.918a8.641,8.641,0,0,1-2.794-.3c-.736-.47-2.445-5.064-4.389-8.838-1.456-2.782-1.345-1.831-1.256-2.608l.424.05c1.756,2.143,4.738,9.441,5.657,10.633a9.263,9.263,0,0,0,3.481.007c1.571-.273,2.343-.481,11.814-3.608,2.886-.972,3.326-1.248,4.709-1.769,1.292-.479,2.029-.708,3.189-1.125a10.716,10.716,0,0,0,2.047-.886C194.566,138.67,195.2,139.9,196.508,141.4Zm-28.882,5.491-.007-.006h0Zm0,0,0,0Zm-.006,0,0,0h0Zm26.237-6.314-.007,0h0Zm0,0-.007,0h0Zm0,0-.007,0h0Zm0,0h0Zm0,0h0Zm-.01,0,.008,0-.008,0Zm0,0Zm0,0Z"/><path class="a" d="M147.747,60.469c1.1-.571,13.845-9.185,20.857-7.992,1.328.226,2.708.109,4.043.314a6.436,6.436,0,0,0,2.821.141c2.528-.9,1.751-6.241.792-8-2.92-5.351-8.235-7.383-14.091-7.674a18.074,18.074,0,0,0-7.12.679c-3.668,1.228-6.582,4.04-8.854,7.038-1.912,2.521-3.375,5.636-2.994,8.889a15.9,15.9,0,0,0,1.154,3.574C144.752,58.517,146.054,61.348,147.747,60.469Z"/><path class="a" d="M160.223,36.445c6.931.046,13.06,1.821,16.51,7.8,1.332,2.36,1.855,7.1-.168,8.866-1.2.995-2.491.628-4.026.372-.976-.156-2.053-.127-3.244-.236a12.151,12.151,0,0,0-3.026-.2c-6.962.53-16.74,6.853-18.536,7.766v-.008c-1.789.747-3.117-1.641-3.839-3.447-.8-1.932-1.324-2.908-1.239-5.117.2-4.194,3.05-8.272,6.1-11.181A15.3,15.3,0,0,1,160.223,36.445Zm-12.475,24.36-.015.006v.008C147.931,60.712,147.876,60.745,147.748,60.805Zm12.141-22.863a13.487,13.487,0,0,0-7.308,1.943,22.188,22.188,0,0,0-8.222,9.454c-1.433,3.707-.481,5.692.429,8.117.453,1.261,1.517,3.325,2.818,2.747l0,0a85.992,85.992,0,0,1,10.984-6.189c7.334-3.212,9.609-2.148,11.558-2.076a23.609,23.609,0,0,1,2.54.151c1.407.2,2.345.532,3.038-.161,1.015-1.128.752-3.75.386-5.229a6.086,6.086,0,0,0-.912-2.1C171.85,39.282,166.119,37.942,159.889,37.942Z"/><ellipse class="d" cx="114.743" cy="219.774" rx="8.707" ry="8.36"/><path class="a" d="M112.326,212.533a7.471,7.471,0,0,0-2.348,13.322c5.121,3.613,12.307.405,12.7-5.643C122.963,214.725,117.455,210.94,112.326,212.533Zm5.333-1.436a9.016,9.016,0,0,1,5.373,13.083,9.64,9.64,0,0,1-16.84-.492C102.657,216.342,109.821,208.692,117.659,211.1Z"/><path class="b" d="M114.81,224.076s6.456-2.3,4.777-6.788a2.527,2.527,0,0,0-4.849.024,2.518,2.518,0,0,0-4.835,0C108.225,221.8,114.566,223.968,114.81,224.076Z"/><path class="a" d="M117.317,214.715c2.36.069,3.561,2.55,3.262,4.669a5.254,5.254,0,0,1-1.508,2.871,11.466,11.466,0,0,1-4,2.534l0-.011,0,.011c-.346.1-.465.024-.822-.118-2.462-.987-5.043-2.76-5.358-5.383a4.842,4.842,0,0,1,.937-3.386,3.265,3.265,0,0,1,4.911-.121A3.575,3.575,0,0,1,117.317,214.715Zm-1.788,2.576c-.11.3-.148.722-.788.78-.665-.056-.689-.508-.8-.8a1.909,1.909,0,0,0-1.7-1.021c-1.064.012-1.621.966-1.808,2.009-.393,2.429,2.156,4.1,4.382,5,2.2-.919,4.689-2.716,4.238-5.11C118.483,215.377,116,216.1,115.529,217.291Z"/><path class="a" d="M233.424,160.275c12,.156,21.034,10.76,18.281,22.247-3.366,13.387-20.407,17.736-30.918,8.961C208.032,180.47,216.11,160.243,233.424,160.275Zm-5.233,3.007a16.806,16.806,0,0,0-6.062,3.3c-10.807,9.238-5.1,26.759,9.95,28.423v.006a17.206,17.206,0,0,0,16.532-9.56C254.505,172.828,242.318,159.154,228.191,163.282Z"/><path class="a" d="M240.731,182.2l-.065.64c-2.611,3.166-6.875,3.784-10.726,2.638a10.84,10.84,0,0,1-3.859-2.238l-.021-.023-.1-.641c1.257-.185-.37-.149,3.347.641a14.458,14.458,0,0,0,6.519.276,12.061,12.061,0,0,0,4.261-1.35Z"/><path class="a" d="M228.649,174.154c.646,1.332.289.442.4,2.637.023.3.07.043-.221,1.049l-.757.422h-.008l-.834-.242-.422-.758c-.056-.165-.047-2.2-.05-2.2l.29-.817.782-.379h.008Z"/><path class="a" d="M239.833,173.932c.646,1.332.289.441.4,2.637.023.3.071.043-.221,1.049l-.757.422h-.008l-.834-.242-.422-.758c-.074-.219-.024-1.626-.049-2.2v0l.291-.817.781-.379h.008Z"/><path class="a" d="M115.424,90.312c8.607.111,14.652,7.827,12.727,15.482-2.383,9.4-14.25,12.322-21.529,6.242C97.782,104.408,103.335,90.28,115.424,90.312Zm-3.661,2.03a11.774,11.774,0,0,0-4.242,2.313c-7.543,6.449-3.6,18.7,6.964,19.874v0a12.014,12.014,0,0,0,11.563-6.672C130.275,98.7,121.25,89.452,111.763,92.342Z"/><path class="a" d="M120.144,105.042c2.812.181,1.089,5.926-3.987,6.03a8.725,8.725,0,0,1-3.625-.356h0c-3.189-1.175-3.953-4.2-2.63-5.043.3-.175.113-.189,5.311-.448C115.536,105.209,119.826,105.022,120.144,105.042Zm-9.476,1.892a2.7,2.7,0,0,0,.608,1.509,5.644,5.644,0,0,0,4.346,2.02v0a4.839,4.839,0,0,0,4.4-3.3,1.375,1.375,0,0,0,.029-.661h0v0C115.875,106.744,112.549,106.832,110.668,106.934Zm.014-.08Zm0,0h0v0l0-.006Zm0-.009,0-.014,0,.008h0l0,.012h0l.008-.01-.007.009.009-.015-.007.011.009-.015-.007.012.007-.014-.007.013.007-.014Zm9.354-.369h0l0,0Zm0,0h0l-.005,0Zm0,0h0l-.01-.009Zm-.005-.006-.009-.014.009.014-.009-.013.01.014-.01-.012.012.015-.01-.011.012.013v0l0,0,0-.007,0,0,0-.007Z"/><path class="a" d="M113.032,100.262c.706.4,1.35.643,1.059,1.413-.155.271-.293.356-1.177.964a10.62,10.62,0,0,1-2.15,1.022l-.421-.077.082-.421a11.615,11.615,0,0,1,1.609-1.706c.188-.094-.086.018-1.314-1.15-.572-.535-.427-.305-.613-.836l.408-.143A8.459,8.459,0,0,1,113.032,100.262Z"/><path class="a" d="M120.472,99.027l-.143.408c-.319.279-.717.672-1.1.992-.709.579-.831.512-.681.587a11.939,11.939,0,0,1,1.61,1.706l.082.421-.422.077c-.053-.016-.572-.212-.854-.335a6.548,6.548,0,0,1-1.294-.685c-.142-.142-.953-.57-1.179-.966-.291-.771.359-1.013,1.06-1.413a8.17,8.17,0,0,1,2.516-.934Z"/><path class="a" d="M27.41,175.737c8.588.023,15.23,7.905,13.185,16.036C37.522,203.9,20.079,204.9,14.928,193.81,10.981,185.074,17.821,175.619,27.41,175.737Zm-3.809,2.05a11.946,11.946,0,0,0-7.443,6.4c-3.406,7.625,2.038,15.851,10.276,16.671v0c7.179.385,13.2-5.087,13.127-11.9C39.467,180.884,31.291,175.444,23.6,177.787Z"/><path class="a" d="M32.307,191.025a1.46,1.46,0,0,1,1.375,1.533c.085,2.268-2.662,4.885-6.023,4.686-6,.53-8.111-5.25-5.592-5.714C22.833,191.393,31.828,191,32.307,191.025Zm-9.859,1.91a1.588,1.588,0,0,0,.094.611c.466,1.441,2.255,2.975,5.073,3.09,0,.124,3.518-.351,4.513-3.138a1.885,1.885,0,0,0,.117-.977l0-.008h0l-.01-.026h0C32.132,192.487,22.552,192.928,22.448,192.935Zm.015-.073v0l0,0Zm0,0,0,0h0l.006-.007Zm0-.01,0,0h0l-.005.011.01-.013,0,0,0,.006.01-.015-.007.011.008-.015-.008.014.008-.015,0,.006,0,.008.007-.014Zm9.754-.381Zm0,0h0l0,0Zm0,0h0l-.007-.006Zm0,0h0l-.011-.008Zm0-.005-.006-.006-.005-.007.011.015-.011-.013.013.015-.012-.012.013.013h0l0-.007-.008-.01.01.015-.005-.009-.006-.007Z"/><path class="a" d="M25.71,186.522a.757.757,0,0,1,.333.853c-.109.3-.126.3-.931.881a8.541,8.541,0,0,1-2.164,1.151c-.477.188-.3.164-.8.071.1-.51.015-.339.343-.721a10.29,10.29,0,0,1,1.424-1.46l.091-.073a13.461,13.461,0,0,1-1.856-1.51c-.137-.122-.072,0-.243-.5l.407-.142A9.983,9.983,0,0,1,25.71,186.522Z"/><path class="a" d="M32.638,184.759l-.142.407-.01.01a14.668,14.668,0,0,1-1.947,1.588,11.656,11.656,0,0,1,1.719,1.77c.09.1.045.01.139.484-.485.089-.395.088-.5.047a10.479,10.479,0,0,1-2.138-1.043c-.07-.034-.879-.614-1.076-.79a.755.755,0,0,1-.106-.909c.135-.194.146-.207.677-.509a9.078,9.078,0,0,1,2.839-1.164C32.274,184.605,32.16,184.592,32.638,184.759Z"/><ellipse class="d" cx="27.849" cy="101.949" rx="22.073" ry="21.191"/><path class="a" d="M21.381,82.477c-16.217,4.93-20.364,25.661-6.292,35.834,13.542,9.581,32.829,1.351,34.038-15.181C49.839,88.342,35.277,78.258,21.381,82.477Zm13.512-1.412c17.729,5.7,21.405,27.9,6.49,38.559-11.349,8.061-27.83,4.41-34.168-8.27C-1.286,93.9,15.921,75.192,34.893,81.065Z"/><path class="b" d="M28.017,112.854s16.366-5.839,12.111-17.208c-2.847-7.609-11.467-4.474-12.292.06-.825-4.534-9.41-7.609-12.258,0C11.325,107.075,27.4,112.581,28.017,112.854Z"/><path class="a" d="M28.055,113.612c-.232-.006-.192,0-.725-.211-5.576-2.153-11.9-6.222-13.05-12.1a11.142,11.142,0,0,1,1.464-7.662c3.055-4.887,9.4-3.948,12.092.052a7.3,7.3,0,0,1,2.882-2.55c4.752-2.394,9.739.209,10.757,6.643.673,4.671-1.729,8.419-5.416,11.386A28.447,28.447,0,0,1,28.055,113.612Zm.861-18.746a4.5,4.5,0,0,0-.369,1.107.758.758,0,0,1-.842.481c-.838-.222-.381-.758-1.183-1.995-1.873-2.89-7.535-4.417-10,.957-3.428,7.867,3.549,13.473,11.5,16.624.1-.1,15.688-5.746,11.268-16.451C36.916,89.909,30.671,91.464,28.916,94.866Z"/><ellipse class="d" cx="222.474" cy="36.017" rx="10.573" ry="10.151"/><path class="a" d="M219.492,27.068a9.239,9.239,0,0,0-2.9,16.466c6.346,4.505,15.3.375,15.679-6.974C232.677,30.147,226.192,25.04,219.492,27.068Zm6.475-1.432A10.79,10.79,0,0,1,232.4,41.287a11.54,11.54,0,0,1-20.163-.589C207.989,31.866,216.663,22.751,225.967,25.636Z"/><path class="b" d="M222.555,41.241s7.84-2.8,5.8-8.243a3.069,3.069,0,0,0-5.889.029,3.057,3.057,0,0,0-5.871,0C214.559,38.473,222.259,41.11,222.555,41.241Z"/><path class="a" d="M222.6,42c-.192-.005-.176.005-.663-.187-2.241-.907-4.649-2.366-5.8-4.492a5.369,5.369,0,0,1,1.206-6.59,3.9,3.9,0,0,1,5.125.677,4.188,4.188,0,0,1,3.055-1.373c1.971.025,3.195,1.37,3.729,3.267.887,3.324-1.28,5.877-4.257,7.611A11.669,11.669,0,0,1,222.6,42ZM225.5,31.554a2.573,2.573,0,0,0-2.128,1.185c-.259.475-.069.629-.528.948a.759.759,0,0,1-.954-.167c-.242-.34-.1-.3-.278-.685a2.453,2.453,0,0,0-3.077-1.059,3.639,3.639,0,0,0-1.481,3.591c.39,2.447,3.2,4.133,5.5,5.059,2.235-.916,4.968-2.723,5.342-5.125a4.223,4.223,0,0,0-.6-2.747A2.043,2.043,0,0,0,225.5,31.554Z"/><ellipse class="d" cx="214.653" cy="224.444" rx="10.573" ry="10.151"/><path class="a" d="M211.67,215.5a9.239,9.239,0,0,0-2.9,16.466c6.329,4.493,15.3.4,15.678-6.974C224.855,218.574,218.37,213.467,211.67,215.5Zm6.475-1.432a10.79,10.79,0,0,1,6.432,15.651,11.541,11.541,0,0,1-20.163-.589C200.167,220.293,208.842,211.178,218.145,214.063Z"/><path class="b" d="M214.734,229.668s7.839-2.8,5.8-8.243a3.068,3.068,0,0,0-5.888.029,3.058,3.058,0,0,0-5.872,0C206.738,226.9,214.437,229.537,214.734,229.668Z"/><path class="a" d="M214.774,230.426c-.192,0-.176.006-.662-.186-2.241-.907-4.649-2.366-5.8-4.492a5.368,5.368,0,0,1,1.2-6.59,3.9,3.9,0,0,1,5.125.677,4.184,4.184,0,0,1,3.055-1.373c1.972.025,3.2,1.37,3.73,3.266.887,3.325-1.281,5.878-4.258,7.612A11.564,11.564,0,0,1,214.774,230.426Zm2.906-10.445a2.572,2.572,0,0,0-2.128,1.185c-.26.474-.07.629-.528.948a.761.761,0,0,1-.955-.167c-.241-.34-.1-.3-.277-.686a2.454,2.454,0,0,0-3.077-1.058,3.637,3.637,0,0,0-1.482,3.591c.39,2.447,3.2,4.133,5.5,5.059,2.235-.916,4.967-2.723,5.342-5.125a4.217,4.217,0,0,0-.606-2.747A2.043,2.043,0,0,0,217.68,219.981Z"/><path class="b" d="M252.666,92.184c-.368.461-1.619,5.134-1.368,13.04.337,10.576,2.354,25.072,3.065,25.1C261.708,130.665,261.74,92.5,252.666,92.184Z"/><path class="a" d="M252.835,91.887c2.809.142,4.564,3.706,5.453,6.374,2.224,6.676,2.578,15.959,1.6,22.894-.5,3.46-1.776,9.7-5.273,9.926a.951.951,0,0,1-.9-.3c-1.192-1.47-4-23.07-2.561-33.568.149-1.126.709-4.493,1.262-5.209l0,0C252.554,91.858,252.659,91.878,252.835,91.887Zm-.713,4.185a60.021,60.021,0,0,0-.13,11.147c.327,5.022,1.713,19.039,2.793,22.314,5.581-1.405,6.148-35.857-1.892-37.024l-.049-.006A19.167,19.167,0,0,0,252.122,96.072Z"/><path class="b" d="M246.607,100.993l.529.688,0,.007-.118.86c-.88.678-.487.468-1.6.765-6.206,1.662-12.84,4.619-20.965,8.095a35.512,35.512,0,0,0-4.133,2.031c-2.325,1.389-1.291,1.227-2.386,1.136l.057-.639a17.16,17.16,0,0,1,1.764-1.378c2.91-1.984,12.224-6.373,14.54-7.425a75.843,75.843,0,0,1,11.446-4.258Z"/></svg>